# xmcd CD database file
#
# Track frame offsets:
#	150
#	29052
#	51593
#	68255
#	98122
#	124981
#	141994
#	170052
#	181337
#
# Disc length: 2808 seconds
#
# Revision: 0
# Processed by: cddbd v1.5.2PL0 Copyright (c) Steve Scherf et al.
# Submitted via: CDex 1.70beta2
#
DISCID=860af609
DTITLE=Preservation Hall Jazz Band - Tales Of The Cocktail
DYEAR=1900
DGENRE=Jazz
TTITLE0=Over The Gloryland
TTITLE1=I'm Alone Because I Love
TTITLE2=Eh La Ba
TTITLE3=Apple Tree
TTITLE4=Little Liza
TTITLE5=Complicated Life
TTITLE6=His Eye Is On the Sparrow
TTITLE7=I Can't Give You Anything
TTITLE8=Shake That Thing
EXTD=
EXTT0=
EXTT1=
EXTT2=
EXTT3=
EXTT4=
EXTT5=
EXTT6=
EXTT7=
EXTT8=
PLAYORDER=
